<svg xmlns="http://www.w3.org/2000/svg" xmlns:xlink="http://www.w3.org/1999/xlink" width="500" zoomAndPan="magnify" viewBox="0 0 375 374.999991" height="500" preserveAspectRatio="xMidYMid meet" version="1.0"><defs><filter x="0%" y="0%" width="100%" height="100%" id="9291f16676"><feColorMatrix values="0 0 0 0 1 0 0 0 0 1 0 0 0 0 1 0 0 0 1 0" color-interpolation-filters="sRGB"/></filter><g/><mask id="23b16837e2"><g filter="url(#9291f16676)"><rect x="-37.5" width="450" fill="#000000" y="-37.499999" height="449.999989" fill-opacity="0.32"/></g></mask><clipPath id="7ab1ce8044"><path d="M 0.847656 0.515625 L 143.199219 0.515625 L 143.199219 106.265625 L 0.847656 106.265625 Z M 0.847656 0.515625 " clip-rule="nonzero"/></clipPath><clipPath id="767dc9876b"><rect x="0" width="144" y="0" height="107"/></clipPath></defs><rect x="-37.5" width="450" fill="#ffffff" y="-37.499999" height="449.999989" fill-opacity="1"/><rect x="-37.5" width="450" fill="#ffffff" y="-37.499999" height="449.999989" fill-opacity="1"/><g mask="url(#23b16837e2)"><g transform="matrix(1, 0, 0, 1, 170, 134)"><g clip-path="url(#767dc9876b)"><g clip-path="url(#7ab1ce8044)"><path fill="#393536" d="M 2.085938 63.140625 C 3.144531 59.738281 3.144531 59.738281 4.902344 55.832031 C 4.863281 55.628906 4.84375 55.429688 4.84375 55.230469 C 4.839844 55.03125 4.84375 54.894531 4.863281 54.761719 C 3.386719 52.445312 3.386719 52.445312 2.28125 50.332031 C 2.21875 50.679688 2.125 50.882812 2.03125 50.949219 C 1.886719 50.941406 1.792969 50.445312 1.824219 49.75 C 1.855469 49.117188 1.996094 48.570312 2.144531 48.507812 C 2.285156 48.519531 2.382812 48.945312 2.359375 49.570312 C 4.84375 49.523438 4.84375 49.523438 8.589844 49.519531 C 9.632812 43.542969 9.632812 43.542969 10.984375 37.652344 C 10.835938 37.417969 10.777344 37.007812 10.839844 36.566406 C 10.953125 35.808594 11.382812 35.078125 11.792969 34.941406 C 11.957031 34.929688 12.101562 34.976562 12.214844 35.074219 C 18.332031 29.96875 18.332031 29.96875 25.910156 24.636719 C 28.609375 21.296875 28.609375 21.296875 31.421875 18.011719 C 32.574219 15.746094 32.574219 15.746094 33.734375 13.546875 C 33.582031 13.46875 33.5 13.300781 33.578125 13.054688 C 33.644531 12.71875 34.007812 12.367188 34.378906 12.277344 C 34.753906 12.191406 35.003906 12.390625 34.894531 12.769531 C 34.832031 13.109375 34.476562 13.453125 34.101562 13.539062 C 34.054688 13.570312 34.046875 13.5625 34.042969 13.554688 C 32.851562 15.785156 32.851562 15.785156 31.710938 18.054688 C 31.675781 18.097656 31.675781 18.097656 31.648438 18.144531 C 28.847656 21.410156 28.847656 21.410156 26.1875 24.6875 C 29.859375 28.613281 29.859375 28.613281 34.203125 33.042969 C 35.351562 28.402344 35.351562 28.402344 36.582031 23.910156 C 35.972656 23.820312 35.617188 23.269531 35.699219 22.589844 C 35.824219 21.742188 36.601562 20.949219 37.433594 20.816406 C 37.847656 20.753906 38.183594 20.882812 38.417969 21.121094 C 44.839844 15.9375 51.410156 11.09375 57.984375 6.660156 C 57.828125 6.484375 57.761719 6.261719 57.796875 6.019531 C 57.84375 5.644531 58.0625 5.308594 58.464844 5.046875 C 56.773438 3.261719 56.773438 3.261719 55.199219 1.605469 C 55.148438 1.628906 55.039062 1.652344 54.929688 1.667969 C 54.488281 1.71875 54.183594 1.511719 54.261719 1.210938 C 54.28125 0.925781 54.664062 0.652344 55.113281 0.59375 C 55.566406 0.542969 55.855469 0.746094 55.828125 1.035156 C 55.757812 1.183594 55.683594 1.3125 55.542969 1.421875 C 57.109375 3.078125 57.109375 3.078125 58.78125 4.863281 C 59.015625 4.757812 59.3125 4.679688 59.566406 4.664062 C 60.492188 4.601562 61.21875 5.097656 61.164062 5.785156 C 61.144531 5.914062 61.121094 6.035156 61.046875 6.15625 C 66.050781 7.609375 66.050781 7.609375 71.238281 9.277344 C 82.371094 8.671875 82.371094 8.671875 92.90625 8.699219 C 92.835938 8.007812 93.449219 7.53125 94.3125 7.640625 C 95.222656 7.777344 95.992188 8.425781 96.128906 9.144531 C 96.164062 9.289062 96.152344 9.414062 96.097656 9.519531 C 104.128906 13.679688 104.128906 13.679688 111.652344 18.128906 C 113.140625 16.71875 113.140625 16.71875 114.472656 15.367188 C 114.40625 12.710938 114.40625 12.710938 114.257812 10.226562 C 113.777344 9.933594 113.335938 9.425781 113.1875 8.960938 C 112.984375 8.363281 113.347656 8.054688 113.941406 8.234375 C 114.578125 8.460938 115.25 9.117188 115.453125 9.710938 C 115.648438 10.304688 115.316406 10.636719 114.714844 10.457031 C 114.65625 10.429688 114.597656 10.402344 114.539062 10.375 C 114.679688 12.695312 114.679688 12.695312 114.761719 15.1875 C 118.988281 12.8125 118.988281 12.8125 122.21875 11.140625 C 122.183594 11.082031 122.152344 11.019531 122.125 10.957031 C 122.023438 10.699219 122.097656 10.546875 122.347656 10.683594 C 122.59375 10.820312 122.863281 11.117188 122.96875 11.375 C 123.074219 11.636719 122.996094 11.785156 122.746094 11.648438 C 122.667969 11.628906 122.558594 11.546875 122.421875 11.398438 C 119.246094 13.082031 119.246094 13.082031 115.082031 15.441406 C 119.390625 16.472656 119.390625 16.472656 123.179688 17.582031 C 122.996094 16.9375 123.238281 16.605469 123.722656 16.808594 C 124.210938 17.011719 124.78125 17.707031 124.980469 18.347656 C 125.207031 19.039062 124.980469 19.417969 124.480469 19.214844 C 124.007812 18.996094 123.503906 18.425781 123.257812 17.835938 C 119.285156 16.710938 119.285156 16.710938 114.738281 15.667969 C 110.355469 19.984375 110.355469 19.984375 104.96875 25.296875 C 105.15625 25.542969 105.3125 25.867188 105.378906 26.210938 C 114.492188 28.058594 114.492188 28.058594 122.222656 30.089844 C 122.207031 29.414062 122.566406 28.988281 123.09375 29.113281 C 123.640625 29.230469 124.191406 29.925781 124.355469 30.675781 C 127.765625 31.738281 130.714844 32.726562 133.273438 33.796875 C 133.195312 33.144531 133.386719 32.804688 133.699219 32.90625 C 133.917969 32.96875 134.164062 33.300781 134.347656 33.726562 C 135.242188 33.085938 135.242188 33.085938 136.035156 32.539062 C 136.015625 32.476562 136 32.410156 135.984375 32.34375 C 135.898438 31.945312 135.949219 31.636719 136.117188 31.722656 C 136.304688 31.875 136.523438 32.308594 136.609375 32.707031 C 136.695312 33.109375 136.648438 33.414062 136.476562 33.324219 C 136.359375 33.21875 136.238281 33.042969 136.152344 32.859375 C 135.355469 33.398438 135.355469 33.398438 134.457031 34.035156 C 134.5 34.160156 134.53125 34.289062 134.574219 34.484375 C 134.699219 35.199219 134.523438 35.660156 134.183594 35.558594 C 134.128906 35.503906 134.097656 35.511719 134.046875 35.460938 C 133.921875 41.765625 133.921875 41.765625 133.324219 48.488281 C 133.589844 48.773438 133.785156 49.320312 133.800781 49.878906 C 133.8125 50.253906 133.753906 50.628906 133.640625 50.882812 C 136.011719 56.8125 136.011719 56.8125 137.675781 62.269531 C 137.773438 62.082031 137.875 61.960938 137.972656 61.972656 C 138.125 61.925781 138.242188 62.074219 138.300781 62.351562 C 140.136719 58.785156 140.136719 58.785156 141.476562 55.523438 C 141.460938 55.382812 141.457031 55.175781 141.460938 55.035156 C 141.464844 54.476562 141.570312 53.988281 141.695312 53.988281 C 141.816406 53.988281 141.910156 54.410156 141.90625 55.042969 C 141.894531 55.601562 141.792969 56.089844 141.671875 56.089844 C 141.601562 56.085938 141.542969 55.945312 141.503906 55.734375 C 140.171875 58.996094 140.171875 58.996094 138.339844 62.625 C 138.351562 62.695312 138.351562 62.832031 138.347656 62.96875 C 141.644531 61.289062 141.644531 61.289062 143.003906 59.921875 C 143.035156 59.566406 143.0625 59.351562 143.082031 59.28125 C 143.09375 59.28125 143.078125 59.566406 143.046875 59.921875 C 143.019531 60.28125 142.984375 60.566406 142.976562 60.566406 C 142.957031 60.636719 142.964844 60.417969 142.988281 60.132812 C 141.625 61.566406 141.625 61.566406 138.328125 63.234375 C 138.3125 63.367188 138.292969 63.503906 138.261719 63.632812 C 140.328125 67.039062 140.328125 67.039062 141.214844 69.601562 C 141.289062 69.328125 141.375 69.054688 141.421875 68.992188 C 141.503906 68.863281 141.472656 69.222656 141.359375 69.78125 C 141.238281 70.339844 141.078125 70.890625 141 71.015625 C 140.914062 71.144531 140.945312 70.78125 141.0625 70.226562 C 141.09375 70.085938 141.125 69.945312 141.140625 69.878906 C 140.269531 67.242188 140.269531 67.242188 138.191406 63.894531 C 138.066406 64.285156 137.894531 64.59375 137.730469 64.636719 C 137.578125 64.679688 137.457031 64.523438 137.394531 64.246094 C 126.988281 77.734375 126.988281 77.734375 110.570312 92.414062 C 110.554688 92.550781 110.574219 92.648438 110.546875 92.777344 C 110.359375 93.527344 109.648438 94.226562 108.902344 94.394531 C 108.117188 94.589844 107.632812 94.128906 107.8125 93.367188 C 107.84375 93.242188 107.882812 93.125 107.925781 93.015625 C 102.832031 89.671875 96.945312 85.6875 90.375 81.058594 C 92.304688 89.523438 92.304688 89.523438 93.851562 96.941406 C 97.496094 98.621094 97.496094 98.621094 100.863281 100.089844 C 101.070312 99.910156 101.316406 99.78125 101.601562 99.71875 C 102.125 99.617188 102.441406 99.898438 102.332031 100.328125 C 102.261719 100.730469 101.742188 101.167969 101.21875 101.273438 C 100.738281 101.351562 100.390625 101.097656 100.460938 100.6875 C 100.515625 100.5625 100.527344 100.476562 100.636719 100.347656 C 97.398438 98.964844 97.398438 98.964844 93.914062 97.378906 C 94.347656 101.597656 94.347656 101.597656 94.6875 105.335938 C 95.09375 105.28125 95.3125 105.488281 95.253906 105.769531 C 95.195312 106.0625 94.820312 106.34375 94.414062 106.40625 C 94.003906 106.46875 93.742188 106.28125 93.800781 105.988281 C 93.835938 105.78125 94.050781 105.570312 94.304688 105.453125 C 93.96875 101.664062 93.96875 101.664062 93.53125 97.382812 C 89.015625 100.996094 89.015625 100.996094 84.59375 104.300781 C 84.675781 104.417969 84.710938 104.554688 84.695312 104.707031 C 84.6875 105.109375 84.179688 105.472656 83.589844 105.519531 C 83.007812 105.5625 82.5625 105.269531 82.585938 104.863281 C 82.652344 104.441406 83.152344 104.074219 83.726562 104.035156 C 83.984375 104.011719 84.15625 104.054688 84.332031 104.125 C 88.867188 100.730469 88.867188 100.730469 93.464844 97.035156 C 91.84375 89.464844 91.84375 89.464844 89.84375 80.796875 C 84.675781 81.996094 84.675781 81.996094 79.410156 83.132812 C 79.402344 83.234375 79.429688 83.332031 79.425781 83.433594 C 79.367188 84.859375 78.105469 86.019531 76.523438 86.054688 C 75.378906 86.070312 74.417969 85.46875 73.972656 84.582031 C 65.675781 87.195312 65.675781 87.195312 57.699219 89.457031 C 57.734375 89.574219 57.773438 89.695312 57.765625 89.8125 C 57.84375 90.691406 57.085938 91.335938 56.109375 91.277344 C 55.121094 91.207031 54.296875 90.464844 54.226562 89.601562 C 54.167969 89.09375 54.386719 88.65625 54.777344 88.394531 C 46.597656 76.445312 46.597656 76.445312 38.855469 63.753906 C 38.816406 63.765625 38.769531 63.777344 38.71875 63.757812 C 38.136719 63.75 37.613281 63.386719 37.300781 62.84375 C 32.90625 67.070312 32.90625 67.070312 28.953125 70.992188 C 29.117188 71.269531 29.238281 71.617188 29.265625 71.957031 C 29.347656 72.878906 28.792969 73.539062 28.046875 73.460938 C 27.570312 73.410156 27.109375 73.03125 26.839844 72.5625 C 20.9375 75.554688 20.9375 75.554688 16.238281 77.949219 C 16.304688 78.117188 16.332031 78.238281 16.371094 78.417969 C 16.507812 79.15625 16.242188 79.679688 15.742188 79.503906 C 15.277344 79.375 14.777344 78.648438 14.605469 77.847656 C 14.496094 77.289062 14.625 76.90625 14.867188 76.742188 C 13.183594 71.6875 11.710938 66.5625 10.472656 61.40625 C 7.871094 58.5625 7.871094 58.5625 5.75 56.003906 C 5.667969 56.335938 5.523438 56.609375 5.347656 56.550781 C 5.4375 62.222656 5.4375 62.222656 5.828125 67.664062 C 6.050781 67.824219 6.28125 68.390625 6.386719 69.058594 C 6.484375 69.722656 6.367188 70.234375 6.097656 70.09375 C 6.5 72.863281 6.5 72.863281 6.960938 75.5 C 7.1875 75.710938 7.457031 76.269531 7.601562 76.867188 C 7.765625 77.53125 7.683594 77.925781 7.410156 77.734375 C 7.171875 77.605469 6.832031 76.925781 6.683594 76.316406 C 6.519531 75.644531 6.597656 75.261719 6.839844 75.398438 C 6.378906 72.757812 6.378906 72.757812 5.992188 70.050781 C 5.765625 69.828125 5.535156 69.253906 5.441406 68.648438 C 5.429688 68.578125 5.421875 68.511719 5.414062 68.445312 C 3.628906 66.355469 3.628906 66.355469 2.269531 64.390625 C 2.289062 64.8125 2.238281 65.035156 2.144531 64.980469 C 2.082031 64.917969 2.019531 64.785156 1.957031 64.578125 C 1.8125 67.628906 1.8125 67.628906 2.089844 70.34375 C 2.125 70.480469 2.175781 70.691406 2.222656 70.898438 C 2.339844 71.390625 2.417969 71.738281 2.375 71.597656 C 2.375 71.597656 2.339844 71.460938 2.3125 71.394531 C 2.1875 70.910156 2.070312 70.421875 1.957031 69.933594 C 1.921875 69.71875 1.910156 69.652344 1.929688 69.71875 C 1.949219 69.789062 1.984375 69.929688 2.039062 70.136719 C 1.761719 67.421875 1.761719 67.421875 1.902344 64.375 C 1.855469 64.167969 1.816406 63.957031 1.785156 63.675781 C 1.777344 63.605469 1.777344 63.605469 1.769531 63.535156 C 1.476562 63.003906 1.476562 63.003906 1.214844 62.464844 C 1.230469 62.820312 1.210938 63.039062 1.148438 62.976562 C 1.078125 62.914062 0.976562 62.425781 0.914062 61.855469 C 0.851562 61.21875 0.863281 60.785156 0.9375 60.851562 C 1.015625 60.914062 1.121094 61.40625 1.179688 62.042969 C 1.1875 62.109375 1.1875 62.109375 1.195312 62.179688 C 1.453125 62.722656 1.453125 62.722656 1.75 63.253906 C 1.742188 62.898438 1.777344 62.609375 1.875 62.667969 C 1.945312 62.734375 2.023438 62.933594 2.085938 63.140625 Z M 15.207031 76.734375 C 15.21875 76.730469 15.253906 76.78125 15.265625 76.777344 C 14.96875 68.753906 14.96875 68.753906 15.234375 60.082031 C 14.609375 59.800781 14.128906 58.804688 14.09375 57.707031 C 14.082031 57.300781 14.132812 56.953125 14.226562 56.660156 C 11.238281 53.21875 11.238281 53.21875 8.773438 50.101562 C 11.089844 63.308594 11.089844 63.308594 15.054688 76.730469 C 15.097656 76.710938 15.164062 76.753906 15.207031 76.734375 Z M 15.480469 76.886719 C 15.710938 77.054688 15.914062 77.296875 16.085938 77.617188 C 20.777344 75.199219 20.777344 75.199219 26.660156 72.164062 C 26.613281 72.027344 26.566406 71.835938 26.542969 71.632812 C 26.519531 71.332031 26.550781 71.007812 26.652344 70.765625 C 21.289062 65.019531 21.289062 65.019531 16.664062 59.476562 C 16.40625 59.953125 16.027344 60.21875 15.605469 60.210938 C 15.550781 60.15625 15.503906 60.164062 15.460938 60.167969 C 15.183594 68.820312 15.183594 68.820312 15.480469 76.886719 Z M 5.398438 68.167969 C 5.402344 67.75 5.523438 67.519531 5.707031 67.550781 C 5.324219 62.171875 5.324219 62.171875 5.234375 56.554688 C 5.132812 56.492188 5.039062 56.292969 4.96875 56.097656 C 3.207031 60.007812 3.207031 60.007812 2.148438 63.414062 C 2.175781 63.550781 2.210938 63.757812 2.238281 63.96875 C 2.246094 64.039062 2.25 64.109375 2.25 64.109375 C 3.609375 66.078125 3.609375 66.078125 5.398438 68.167969 Z M 5.308594 53.8125 C 5.457031 53.8125 5.59375 54.023438 5.6875 54.355469 C 6.941406 52.132812 6.941406 52.132812 8.394531 49.882812 C 4.765625 49.855469 4.765625 49.855469 2.34375 49.847656 C 2.339844 49.917969 2.332031 49.988281 2.320312 50.058594 C 3.429688 52.171875 3.429688 52.171875 4.90625 54.492188 C 4.992188 54.09375 5.136719 53.8125 5.308594 53.8125 Z M 5.761719 54.621094 C 5.796875 54.816406 5.820312 55.011719 5.824219 55.210938 C 5.824219 55.410156 5.816406 55.539062 5.800781 55.671875 C 7.859375 58.179688 7.859375 58.179688 10.371094 60.917969 C 9.332031 55.390625 9.332031 55.390625 8.589844 49.960938 C 7.066406 52.328125 7.066406 52.328125 5.761719 54.621094 Z M 133.003906 48.328125 C 133.054688 48.324219 133.109375 48.378906 133.152344 48.378906 C 133.75 41.609375 133.75 41.609375 133.882812 35.304688 C 133.648438 35.039062 133.421875 34.566406 133.3125 34.058594 C 129.347656 32.5625 129.347656 32.5625 124.402344 31.027344 C 124.4375 31.699219 124.113281 32.144531 123.625 32.105469 C 124.148438 39.246094 124.324219 46.777344 124.113281 54.441406 C 124.632812 54.554688 125.0625 55.039062 125.300781 55.6875 C 129.128906 52.886719 129.128906 52.886719 132.347656 50.277344 C 132.316406 50.097656 132.300781 49.976562 132.296875 49.792969 C 132.261719 48.945312 132.585938 48.304688 133.003906 48.328125 Z M 133.511719 51.074219 C 133.410156 51.203125 133.292969 51.332031 133.160156 51.335938 C 132.992188 57.539062 132.992188 57.539062 132.523438 63.730469 C 132.828125 63.777344 133.027344 64.25 133.03125 64.820312 C 135.390625 64.0625 135.390625 64.0625 137.363281 63.367188 C 137.402344 63.039062 137.476562 62.714844 137.578125 62.460938 C 135.894531 57.066406 135.894531 57.066406 133.511719 51.074219 Z M 132.980469 51.285156 C 132.757812 51.234375 132.558594 50.9375 132.433594 50.578125 C 129.226562 53.230469 129.226562 53.230469 125.40625 56.011719 C 125.464844 56.285156 125.496094 56.609375 125.492188 56.878906 C 125.476562 57.578125 125.273438 58.210938 124.957031 58.667969 C 126.902344 62.480469 126.902344 62.480469 128.582031 66.035156 C 130.082031 65.683594 130.082031 65.683594 131.488281 65.285156 C 131.570312 64.558594 131.941406 63.882812 132.335938 63.761719 C 132.8125 57.527344 132.8125 57.527344 132.980469 51.285156 Z M 137.359375 63.972656 C 137.34375 63.902344 137.34375 63.769531 137.347656 63.632812 C 135.371094 64.382812 135.371094 64.382812 133.007812 65.195312 C 132.925781 65.878906 132.558594 66.566406 132.179688 66.675781 C 131.765625 69.628906 131.765625 69.628906 131.296875 72.476562 C 134.644531 68.117188 134.644531 68.117188 137.359375 63.972656 Z M 109.488281 91.714844 C 109.800781 91.652344 110.03125 91.726562 110.230469 91.847656 C 120.183594 79.265625 120.183594 79.265625 128.242188 66.496094 C 119.746094 68.40625 119.746094 68.40625 108.9375 70.21875 C 108.839844 71.386719 108.109375 72.398438 107.160156 72.8125 C 108.429688 82.992188 108.429688 82.992188 109.054688 91.882812 C 109.203125 91.804688 109.320312 91.777344 109.488281 91.714844 Z M 110.410156 92.023438 C 110.445312 92.058594 110.480469 92.097656 110.480469 92.167969 C 122.003906 82.433594 122.003906 82.433594 131.011719 72.839844 C 129.863281 69.820312 129.863281 69.820312 128.484375 66.550781 C 120.410156 79.382812 120.410156 79.382812 110.410156 92.023438 Z M 108.121094 92.675781 C 108.273438 92.453125 108.5 92.226562 108.722656 92.078125 C 108.066406 83.175781 108.066406 83.175781 106.777344 72.96875 C 106.65625 72.996094 106.527344 73.015625 106.394531 73.03125 C 105.558594 73.105469 104.863281 72.667969 104.457031 72.007812 C 97.617188 76.296875 97.617188 76.296875 90.417969 80.546875 C 100.109375 87.347656 100.109375 87.347656 108.121094 92.675781 Z M 131.996094 66.699219 C 131.6875 66.636719 131.472656 66.214844 131.460938 65.65625 C 130.136719 66 130.136719 66 128.722656 66.363281 C 130.039062 69.492188 130.039062 69.492188 131.128906 72.421875 C 131.597656 69.585938 131.597656 69.585938 131.996094 66.699219 Z M 123.367188 32.03125 C 123.175781 31.929688 122.984375 31.765625 122.828125 31.589844 C 119.375 36.316406 119.375 36.316406 115.164062 41.574219 C 115.492188 42.042969 115.703125 42.644531 115.742188 43.289062 C 115.773438 43.933594 115.609375 44.523438 115.304688 44.953125 C 119.25 50.15625 119.25 50.15625 122.746094 55.042969 C 123.050781 54.6875 123.429688 54.4375 123.84375 54.441406 C 124.015625 42.941406 124.015625 42.941406 123.367188 32.03125 Z M 122.617188 31.320312 C 122.441406 31.03125 122.3125 30.722656 122.265625 30.4375 C 114.535156 28.441406 114.535156 28.441406 105.394531 26.59375 C 105.371094 27 105.179688 27.316406 104.90625 27.535156 C 108.851562 34.078125 108.851562 34.078125 112.523438 40.675781 C 112.804688 40.539062 113.128906 40.476562 113.46875 40.503906 C 114.019531 40.5625 114.519531 40.828125 114.917969 41.269531 C 119.125 35.972656 119.125 35.972656 122.617188 31.320312 Z M 38.609375 21.367188 C 38.742188 21.566406 38.769531 21.847656 38.738281 22.140625 C 38.71875 22.308594 38.652344 22.5 38.601562 22.636719 C 44.515625 24.886719 44.515625 24.886719 51.003906 27.484375 C 51.496094 26.691406 52.414062 26.105469 53.425781 26.042969 C 53.507812 26.042969 53.585938 26.046875 53.667969 26.046875 C 56.289062 15.921875 56.289062 15.921875 58.882812 7.144531 C 58.617188 7.101562 58.390625 7.011719 58.199219 6.882812 C 48.28125 13.71875 48.28125 13.71875 38.609375 21.367188 Z M 38.390625 23.003906 C 38.054688 23.496094 37.546875 23.835938 37.003906 23.910156 C 36.957031 23.929688 36.957031 23.929688 36.9375 23.914062 C 35.683594 28.472656 35.683594 28.472656 34.523438 33.171875 C 42.21875 31.074219 42.21875 31.074219 50.542969 29.070312 C 50.550781 28.980469 50.5625 28.890625 50.546875 28.824219 C 50.570312 28.492188 50.652344 28.175781 50.792969 27.871094 C 44.289062 25.285156 44.289062 25.285156 38.390625 23.003906 Z M 60.863281 6.445312 C 60.746094 6.585938 60.621094 6.707031 60.449219 6.8125 C 67.035156 15.628906 67.035156 15.628906 74.453125 26.238281 C 74.730469 26.019531 75.058594 25.855469 75.414062 25.753906 C 73.125 17.171875 73.125 17.171875 71.019531 9.5625 C 65.851562 7.894531 65.851562 7.894531 60.863281 6.445312 Z M 60.09375 6.996094 C 59.867188 7.089844 59.585938 7.15625 59.339844 7.171875 C 59.339844 7.164062 59.292969 7.171875 59.242188 7.175781 C 56.699219 15.957031 56.699219 15.957031 54.089844 26.09375 C 55.21875 26.3125 56.023438 27.234375 56.046875 28.394531 C 64.652344 28.339844 64.652344 28.339844 73.441406 28.488281 C 73.417969 28.417969 73.421875 28.351562 73.425781 28.28125 C 73.417969 27.609375 73.675781 27 74.121094 26.535156 C 66.675781 15.867188 66.675781 15.867188 60.09375 6.996094 Z M 96.007812 9.789062 C 95.90625 9.972656 95.71875 10.105469 95.5 10.1875 C 99.375 17.011719 99.375 17.011719 103.207031 24.488281 C 103.34375 24.476562 103.476562 24.46875 103.636719 24.5 C 103.996094 24.523438 104.375 24.714844 104.671875 24.976562 C 108.292969 21.464844 108.292969 21.464844 111.480469 18.351562 C 103.992188 13.933594 103.992188 13.933594 96.007812 9.789062 Z M 95.136719 10.242188 C 95.011719 10.261719 94.894531 10.269531 94.738281 10.25 C 94.425781 10.214844 94.101562 10.089844 93.804688 9.914062 C 86.625 17.371094 86.625 17.371094 78.285156 26.429688 C 78.734375 26.835938 79.050781 27.363281 79.144531 27.949219 C 91.179688 26.726562 91.179688 26.726562 102.203125 25.992188 C 102.210938 25.984375 102.210938 25.984375 102.195312 25.941406 C 102.128906 25.320312 102.414062 24.824219 102.886719 24.605469 C 99.03125 17.09375 99.03125 17.09375 95.136719 10.242188 Z M 93.484375 9.675781 C 93.296875 9.496094 93.128906 9.273438 93.023438 9.03125 C 82.488281 8.984375 82.488281 8.984375 71.464844 9.585938 C 73.570312 17.148438 73.570312 17.148438 75.855469 25.667969 C 76.003906 25.648438 76.121094 25.640625 76.265625 25.640625 C 76.90625 25.65625 77.480469 25.84375 77.941406 26.15625 C 86.300781 17.117188 86.300781 17.117188 93.484375 9.675781 Z M 12.3125 35.304688 C 12.367188 35.515625 12.398438 35.71875 12.359375 36.03125 C 16.398438 35.359375 16.398438 35.359375 21.273438 34.71875 C 21.523438 33.535156 22.355469 32.539062 23.273438 32.359375 C 23.351562 32.335938 23.410156 32.363281 23.492188 32.339844 C 24.570312 28.664062 24.570312 28.664062 25.71875 25.09375 C 18.300781 30.339844 18.300781 30.339844 12.3125 35.304688 Z M 12.292969 36.402344 C 12.296875 36.402344 12.28125 36.464844 12.265625 36.519531 C 15.089844 37.535156 15.089844 37.535156 18.4375 38.675781 C 19.824219 37.371094 19.824219 37.371094 21.28125 36.039062 C 21.203125 35.78125 21.183594 35.433594 21.214844 35.097656 C 16.34375 35.710938 16.34375 35.710938 12.292969 36.402344 Z M 12.144531 36.871094 C 12.046875 37.105469 11.917969 37.328125 11.777344 37.480469 C 12.0625 40.160156 12.0625 40.160156 12.441406 42.910156 C 12.519531 42.863281 12.585938 42.875 12.675781 42.832031 C 13.058594 42.78125 13.351562 43.199219 13.410156 43.8125 C 15.648438 41.460938 15.648438 41.460938 18.121094 38.988281 C 14.894531 37.84375 14.894531 37.84375 12.144531 36.871094 Z M 11.582031 37.683594 C 11.511719 37.730469 11.4375 37.777344 11.375 37.761719 C 11.28125 37.796875 11.203125 37.777344 11.125 37.757812 C 9.808594 43.503906 9.808594 43.503906 8.78125 49.339844 C 10.257812 47.464844 10.257812 47.464844 11.902344 45.511719 C 11.765625 45.246094 11.703125 44.871094 11.730469 44.445312 C 11.773438 43.898438 11.980469 43.378906 12.242188 43.117188 C 11.878906 40.308594 11.878906 40.308594 11.582031 37.683594 Z M 13.40625 44.230469 C 13.40625 44.230469 13.40625 44.230469 13.410156 44.230469 C 13.363281 44.820312 13.15625 45.328125 12.882812 45.589844 C 13.824219 50.464844 13.824219 50.464844 15.019531 55.484375 C 15.160156 55.425781 15.3125 55.367188 15.46875 55.359375 C 15.632812 55.410156 15.789062 55.410156 15.941406 55.515625 C 18.101562 47.800781 18.101562 47.800781 20.800781 39.898438 C 19.578125 39.507812 19.578125 39.507812 18.425781 39.074219 C 15.796875 41.667969 15.796875 41.667969 13.40625 44.230469 Z M 12.675781 45.800781 C 12.601562 45.851562 12.527344 45.839844 12.445312 45.890625 C 12.300781 45.871094 12.160156 45.851562 12.054688 45.714844 C 10.339844 47.722656 10.339844 47.722656 8.800781 49.65625 C 11.296875 52.855469 11.296875 52.855469 14.335938 56.308594 C 14.457031 56.019531 14.621094 55.78125 14.816406 55.664062 C 13.625 50.570312 13.625 50.570312 12.675781 45.800781 Z M 27.738281 70.109375 C 28.089844 70.128906 28.4375 70.347656 28.71875 70.683594 C 32.691406 66.710938 32.691406 66.710938 37.125 62.449219 C 37.074219 62.277344 37.039062 62.101562 37.027344 61.957031 C 25.910156 60.078125 25.910156 60.078125 17.011719 58.285156 C 16.980469 58.617188 16.910156 58.957031 16.804688 59.1875 C 21.441406 64.722656 21.441406 64.722656 26.828125 70.496094 C 27.042969 70.214844 27.371094 70.09375 27.738281 70.109375 Z M 38.621094 60.035156 C 39.476562 60.074219 40.195312 60.792969 40.316406 61.726562 C 44.839844 61.875 44.839844 61.875 49.558594 61.980469 C 45.25 57.914062 45.25 57.914062 41.128906 53.902344 C 40.9375 53.96875 40.738281 54 40.53125 54 C 40.367188 54 40.207031 54.003906 40.050781 53.9375 C 39.316406 56.996094 39.316406 56.996094 38.621094 60.035156 Z M 40.332031 62.191406 C 40.269531 62.886719 39.855469 63.488281 39.261719 63.667969 C 46.988281 76.320312 46.988281 76.320312 55.121094 88.214844 C 55.367188 88.144531 55.597656 88.097656 55.878906 88.121094 C 56.566406 88.152344 57.207031 88.554688 57.554688 89.101562 C 65.539062 86.824219 65.539062 86.824219 73.824219 84.203125 C 73.75 83.988281 73.734375 83.757812 73.71875 83.523438 C 73.734375 83.347656 73.753906 83.175781 73.769531 83.011719 C 61.890625 73.058594 61.890625 73.058594 50.058594 62.441406 C 45.089844 62.324219 45.089844 62.324219 40.332031 62.191406 Z M 37.042969 61.515625 C 37.136719 60.808594 37.59375 60.257812 38.199219 60.078125 C 38.910156 56.96875 38.910156 56.96875 39.664062 53.804688 C 38.914062 53.503906 38.335938 52.796875 38.121094 51.945312 C 26.316406 54.945312 26.316406 54.945312 17.007812 57.570312 C 17.015625 57.625 17.023438 57.734375 17.027344 57.84375 C 17.03125 57.898438 17.03125 57.898438 17.027344 57.898438 C 25.921875 59.65625 25.921875 59.65625 37.042969 61.515625 Z M 115.085938 45.265625 C 114.730469 45.605469 114.265625 45.828125 113.738281 45.800781 C 112.898438 45.746094 112.140625 45.140625 111.738281 44.300781 C 105.214844 47.410156 105.214844 47.410156 98.011719 50.75 C 111.308594 53.722656 111.308594 53.722656 122.160156 56.289062 C 122.238281 55.941406 122.367188 55.59375 122.542969 55.292969 C 119.035156 50.414062 119.035156 50.414062 115.085938 45.265625 Z M 111.570312 43.875 C 111.480469 43.601562 111.429688 43.316406 111.417969 43.023438 C 111.367188 42.09375 111.703125 41.335938 112.246094 40.898438 C 108.546875 34.238281 108.546875 34.238281 104.609375 27.714844 C 104.410156 27.765625 104.21875 27.816406 103.984375 27.789062 C 103.242188 27.707031 102.550781 27.109375 102.304688 26.398438 C 91.253906 27.144531 91.253906 27.144531 79.1875 28.378906 C 79.191406 29.105469 78.890625 29.757812 78.386719 30.238281 C 84.847656 36.878906 91.21875 43.707031 97.351562 50.570312 C 104.820312 47.074219 104.820312 47.074219 111.570312 43.875 Z M 124.746094 58.96875 C 124.46875 59.265625 124.128906 59.441406 123.765625 59.457031 C 123.183594 59.496094 122.675781 59.082031 122.378906 58.4375 C 116.066406 63.597656 116.066406 63.597656 108.777344 69.058594 C 108.875 69.269531 108.917969 69.550781 108.9375 69.820312 C 119.789062 67.996094 119.789062 67.996094 128.292969 66.152344 C 126.65625 62.613281 126.65625 62.613281 124.746094 58.96875 Z M 122.242188 58.121094 C 122.136719 57.757812 122.078125 57.398438 122.085938 56.996094 C 122.085938 56.894531 122.09375 56.792969 122.101562 56.691406 C 111.015625 54.078125 111.015625 54.078125 97.402344 51.085938 C 94.800781 55.492188 94.800781 55.492188 92.113281 59.976562 C 92.789062 60.5 93.21875 61.347656 93.203125 62.296875 C 93.195312 62.765625 93.078125 63.21875 92.878906 63.613281 C 98.917969 66.484375 98.917969 66.484375 104.554688 69.167969 C 105.011719 68.339844 105.835938 67.738281 106.730469 67.695312 C 107.542969 67.640625 108.230469 68.03125 108.617188 68.691406 C 115.917969 63.242188 115.917969 63.242188 122.242188 58.121094 Z M 104.308594 71.625 C 104.183594 71.308594 104.121094 70.945312 104.148438 70.546875 C 104.171875 70.191406 104.246094 69.867188 104.367188 69.5625 C 98.703125 66.878906 98.703125 66.878906 92.632812 64.011719 C 92.117188 64.738281 91.285156 65.21875 90.347656 65.25 C 89.875 65.265625 89.4375 65.140625 89.050781 64.945312 C 83.6875 73.332031 83.6875 73.332031 78.300781 81.363281 C 78.796875 81.695312 79.15625 82.171875 79.332031 82.726562 C 84.683594 81.578125 84.683594 81.578125 89.964844 80.34375 C 97.304688 76.027344 97.304688 76.027344 104.308594 71.625 Z M 76.609375 80.863281 C 77.109375 80.855469 77.550781 80.953125 77.933594 81.140625 C 83.3125 73.105469 83.3125 73.105469 88.675781 64.703125 C 88.039062 64.230469 87.613281 63.476562 87.550781 62.621094 C 75.253906 62.699219 62.785156 62.648438 50.730469 62.46875 C 62.316406 72.832031 62.316406 72.832031 73.914062 82.574219 C 74.339844 81.589844 75.394531 80.878906 76.609375 80.863281 Z M 23.769531 32.347656 C 24.441406 32.535156 24.90625 33.253906 24.839844 34.277344 C 29.125 33.773438 29.125 33.773438 33.832031 33.28125 C 29.605469 28.914062 29.605469 28.914062 26 25.078125 C 24.839844 28.6875 24.839844 28.6875 23.769531 32.347656 Z M 24.777344 34.695312 C 24.710938 35.101562 24.570312 35.484375 24.363281 35.839844 C 27.964844 39.386719 27.964844 39.386719 32.058594 43.210938 C 33 38.421875 33 38.421875 34.0625 33.648438 C 29.214844 34.128906 29.214844 34.128906 24.777344 34.695312 Z M 24.140625 36.1875 C 23.757812 36.699219 23.246094 37.0625 22.714844 37.148438 C 22.511719 37.191406 22.324219 37.179688 22.15625 37.125 C 21.660156 38.398438 21.660156 38.398438 21.1875 39.625 C 25.910156 41.253906 25.910156 41.253906 31.300781 43.09375 C 27.515625 39.480469 27.515625 39.480469 24.140625 36.1875 Z M 21.921875 36.992188 C 21.691406 36.855469 21.507812 36.625 21.378906 36.355469 C 20.042969 37.554688 20.042969 37.554688 18.730469 38.816406 C 19.808594 39.175781 19.808594 39.175781 20.933594 39.550781 C 21.421875 38.269531 21.421875 38.269531 21.921875 36.992188 Z M 56 28.828125 C 55.800781 30.179688 54.566406 31.296875 53.140625 31.351562 C 52.25 31.394531 51.484375 31.019531 51.019531 30.402344 C 45.234375 34.367188 45.234375 34.367188 39.679688 38.371094 C 45.167969 41 45.167969 41 51.046875 43.78125 C 62.386719 36.566406 62.386719 36.566406 73.84375 29.699219 C 73.695312 29.460938 73.589844 29.195312 73.511719 28.917969 C 64.664062 28.769531 64.664062 28.769531 56 28.828125 Z M 50.804688 30.0625 C 50.722656 29.871094 50.640625 29.683594 50.59375 29.476562 C 42.332031 31.445312 42.332031 31.445312 34.660156 33.542969 C 36.914062 35.808594 36.914062 35.808594 39.3125 38.152344 C 44.929688 34.101562 44.929688 34.101562 50.804688 30.0625 Z M 78.058594 30.519531 C 77.78125 30.710938 77.476562 30.855469 77.136719 30.9375 C 83.4375 45.082031 83.4375 45.082031 89.527344 59.597656 C 89.816406 59.492188 90.121094 59.425781 90.441406 59.421875 C 90.90625 59.429688 91.351562 59.539062 91.738281 59.738281 C 94.429688 55.257812 94.429688 55.257812 97.027344 50.871094 C 87.714844 40.570312 87.714844 40.570312 78.058594 30.519531 Z M 76.683594 31.019531 C 76.5625 31.027344 76.464844 31.039062 76.347656 31.035156 C 75.449219 31.023438 74.65625 30.644531 74.128906 30.054688 C 62.765625 36.859375 62.765625 36.859375 51.523438 43.992188 C 69.523438 52.542969 69.523438 52.542969 87.804688 61.210938 C 88.074219 60.597656 88.539062 60.089844 89.113281 59.773438 C 82.996094 45.21875 82.996094 45.21875 76.683594 31.019531 Z M 87.5625 62.15625 C 87.578125 61.984375 87.613281 61.804688 87.652344 61.644531 C 69.210938 52.90625 69.210938 52.90625 51.082031 44.28125 C 46.894531 47.054688 46.894531 47.054688 42.855469 49.804688 C 43.039062 50.179688 43.136719 50.628906 43.132812 51.117188 C 43.125 52.269531 42.480469 53.289062 41.574219 53.722656 C 45.800781 57.828125 45.800781 57.828125 50.214844 61.984375 C 68.734375 62.21875 68.734375 62.21875 87.5625 62.15625 Z M 40.585938 48.296875 C 41.429688 48.292969 42.183594 48.703125 42.644531 49.414062 C 46.558594 46.746094 46.558594 46.746094 50.609375 44.058594 C 44.746094 41.292969 44.746094 41.292969 39.265625 38.6875 C 35.800781 41.144531 35.800781 41.144531 32.472656 43.617188 C 35.5 46.363281 35.5 46.363281 38.714844 49.246094 C 39.179688 48.679688 39.84375 48.328125 40.585938 48.296875 Z M 38.042969 51.503906 C 38.035156 51.398438 38.027344 51.265625 38.027344 51.164062 C 38.035156 50.585938 38.195312 50.058594 38.464844 49.585938 C 35.199219 46.679688 35.199219 46.679688 32.136719 43.867188 C 23.671875 50.617188 23.671875 50.617188 16.835938 56.753906 C 16.878906 56.863281 16.917969 57.027344 16.949219 57.1875 C 26.25 54.539062 26.25 54.539062 38.042969 51.503906 Z M 16.160156 55.675781 C 16.371094 55.835938 16.558594 56.105469 16.703125 56.429688 C 23.429688 50.3125 23.429688 50.3125 31.738281 43.679688 C 26.023438 41.730469 26.023438 41.730469 21.042969 40.019531 C 18.339844 47.882812 18.339844 47.882812 16.160156 55.675781 Z M 34.378906 33.820312 C 33.347656 38.46875 33.347656 38.46875 32.417969 43.179688 C 35.621094 40.792969 35.621094 40.792969 38.949219 38.417969 C 36.589844 36.082031 36.589844 36.082031 34.378906 33.820312 Z M 34.378906 33.820312 " fill-opacity="1" fill-rule="nonzero"/></g></g></g></g><g fill="#01023f" fill-opacity="1"><g transform="translate(63.072295, 204.065511)"><g><path d="M 22.859375 -7.78125 C 24.171875 -7.78125 25.441406 -7.976562 26.671875 -8.375 C 27.910156 -8.769531 28.820312 -9.15625 29.40625 -9.53125 L 30.265625 -10.125 L 33.9375 -2.796875 C 33.8125 -2.703125 33.640625 -2.578125 33.421875 -2.421875 C 33.210938 -2.273438 32.71875 -1.992188 31.9375 -1.578125 C 31.164062 -1.171875 30.335938 -0.8125 29.453125 -0.5 C 28.566406 -0.195312 27.40625 0.0703125 25.96875 0.3125 C 24.53125 0.5625 23.050781 0.6875 21.53125 0.6875 C 18.019531 0.6875 14.691406 -0.171875 11.546875 -1.890625 C 8.398438 -3.617188 5.863281 -5.992188 3.9375 -9.015625 C 2.007812 -12.046875 1.046875 -15.316406 1.046875 -18.828125 C 1.046875 -21.484375 1.609375 -24.03125 2.734375 -26.46875 C 3.867188 -28.914062 5.375 -31.007812 7.25 -32.75 C 9.132812 -34.488281 11.328125 -35.875 13.828125 -36.90625 C 16.335938 -37.945312 18.90625 -38.46875 21.53125 -38.46875 C 23.96875 -38.46875 26.21875 -38.175781 28.28125 -37.59375 C 30.34375 -37.019531 31.800781 -36.441406 32.65625 -35.859375 L 33.9375 -34.984375 L 30.265625 -27.65625 C 30.054688 -27.84375 29.738281 -28.066406 29.3125 -28.328125 C 28.882812 -28.585938 28.03125 -28.929688 26.75 -29.359375 C 25.46875 -29.785156 24.171875 -30 22.859375 -30 C 20.773438 -30 18.910156 -29.660156 17.265625 -28.984375 C 15.617188 -28.316406 14.3125 -27.429688 13.34375 -26.328125 C 12.382812 -25.234375 11.648438 -24.050781 11.140625 -22.78125 C 10.640625 -21.519531 10.390625 -20.234375 10.390625 -18.921875 C 10.390625 -16.046875 11.46875 -13.46875 13.625 -11.1875 C 15.78125 -8.914062 18.859375 -7.78125 22.859375 -7.78125 Z M 22.859375 -7.78125 "/></g></g></g><g fill="#01023f" fill-opacity="1"><g transform="translate(96.500724, 204.065511)"><g><path d="M 2.75 0 L 2.75 -39.390625 L 10.859375 -39.390625 L 10.859375 -21.015625 L 10.953125 -21.015625 C 13.054688 -23.128906 15.296875 -24.1875 17.671875 -24.1875 C 18.835938 -24.1875 19.992188 -24.03125 21.140625 -23.71875 C 22.285156 -23.414062 23.382812 -22.941406 24.4375 -22.296875 C 25.488281 -21.660156 26.34375 -20.753906 27 -19.578125 C 27.65625 -18.398438 27.984375 -17.035156 27.984375 -15.484375 L 27.984375 0 L 19.875 0 L 19.875 -13.28125 C 19.875 -14.5 19.484375 -15.566406 18.703125 -16.484375 C 17.929688 -17.398438 16.914062 -17.859375 15.65625 -17.859375 C 14.4375 -17.859375 13.332031 -17.382812 12.34375 -16.4375 C 11.351562 -15.488281 10.859375 -14.4375 10.859375 -13.28125 L 10.859375 0 Z M 2.75 0 "/></g></g></g><g fill="#01023f" fill-opacity="1"><g transform="translate(125.716232, 204.065511)"><g><path d="M 4.34375 -2.90625 C 2.144531 -5.300781 1.046875 -8.238281 1.046875 -11.71875 C 1.046875 -15.195312 2.144531 -18.144531 4.34375 -20.5625 C 6.539062 -22.976562 9.335938 -24.1875 12.734375 -24.1875 C 15.847656 -24.1875 18.410156 -23.207031 20.421875 -21.25 L 20.421875 -23.5 L 28.53125 -23.5 L 28.53125 0 L 20.515625 0 L 20.515625 -2.65625 L 20.421875 -2.65625 C 18.410156 -0.425781 15.847656 0.6875 12.734375 0.6875 C 9.335938 0.6875 6.539062 -0.507812 4.34375 -2.90625 Z M 11.234375 -15.703125 C 10.179688 -14.671875 9.65625 -13.34375 9.65625 -11.71875 C 9.65625 -10.101562 10.160156 -8.785156 11.171875 -7.765625 C 12.179688 -6.742188 13.507812 -6.234375 15.15625 -6.234375 C 16.75 -6.234375 18.054688 -6.75 19.078125 -7.78125 C 20.097656 -8.820312 20.609375 -10.132812 20.609375 -11.71875 C 20.609375 -13.34375 20.082031 -14.671875 19.03125 -15.703125 C 17.976562 -16.742188 16.6875 -17.265625 15.15625 -17.265625 C 13.601562 -17.265625 12.296875 -16.742188 11.234375 -15.703125 Z M 11.234375 -15.703125 "/></g></g></g><g fill="#01023f" fill-opacity="1"><g transform="translate(155.939188, 204.065511)"><g><path d="M 4.125 -23.5 L 4.125 -32.234375 L 12.234375 -32.234375 L 12.234375 -23.5 L 17.171875 -23.5 L 17.171875 -17.3125 L 12.234375 -17.3125 L 12.234375 -9.84375 C 12.234375 -7.675781 12.84375 -6.59375 14.0625 -6.59375 C 14.363281 -6.59375 14.679688 -6.65625 15.015625 -6.78125 C 15.359375 -6.90625 15.617188 -7.023438 15.796875 -7.140625 L 16.078125 -7.328125 L 18.09375 -0.78125 C 16.351562 0.195312 14.367188 0.6875 12.140625 0.6875 C 10.609375 0.6875 9.289062 0.421875 8.1875 -0.109375 C 7.09375 -0.648438 6.265625 -1.367188 5.703125 -2.265625 C 5.140625 -3.171875 4.734375 -4.117188 4.484375 -5.109375 C 4.242188 -6.097656 4.125 -7.160156 4.125 -8.296875 L 4.125 -17.3125 L 0.734375 -17.3125 L 0.734375 -23.5 Z M 4.125 -23.5 "/></g></g></g><g fill="#01023f" fill-opacity="1"><g transform="translate(172.973861, 204.065511)"><g><path d="M 22.859375 -7.78125 C 24.171875 -7.78125 25.441406 -7.976562 26.671875 -8.375 C 27.910156 -8.769531 28.820312 -9.15625 29.40625 -9.53125 L 30.265625 -10.125 L 33.9375 -2.796875 C 33.8125 -2.703125 33.640625 -2.578125 33.421875 -2.421875 C 33.210938 -2.273438 32.71875 -1.992188 31.9375 -1.578125 C 31.164062 -1.171875 30.335938 -0.8125 29.453125 -0.5 C 28.566406 -0.195312 27.40625 0.0703125 25.96875 0.3125 C 24.53125 0.5625 23.050781 0.6875 21.53125 0.6875 C 18.019531 0.6875 14.691406 -0.171875 11.546875 -1.890625 C 8.398438 -3.617188 5.863281 -5.992188 3.9375 -9.015625 C 2.007812 -12.046875 1.046875 -15.316406 1.046875 -18.828125 C 1.046875 -21.484375 1.609375 -24.03125 2.734375 -26.46875 C 3.867188 -28.914062 5.375 -31.007812 7.25 -32.75 C 9.132812 -34.488281 11.328125 -35.875 13.828125 -36.90625 C 16.335938 -37.945312 18.90625 -38.46875 21.53125 -38.46875 C 23.96875 -38.46875 26.21875 -38.175781 28.28125 -37.59375 C 30.34375 -37.019531 31.800781 -36.441406 32.65625 -35.859375 L 33.9375 -34.984375 L 30.265625 -27.65625 C 30.054688 -27.84375 29.738281 -28.066406 29.3125 -28.328125 C 28.882812 -28.585938 28.03125 -28.929688 26.75 -29.359375 C 25.46875 -29.785156 24.171875 -30 22.859375 -30 C 20.773438 -30 18.910156 -29.660156 17.265625 -28.984375 C 15.617188 -28.316406 14.3125 -27.429688 13.34375 -26.328125 C 12.382812 -25.234375 11.648438 -24.050781 11.140625 -22.78125 C 10.640625 -21.519531 10.390625 -20.234375 10.390625 -18.921875 C 10.390625 -16.046875 11.46875 -13.46875 13.625 -11.1875 C 15.78125 -8.914062 18.859375 -7.78125 22.859375 -7.78125 Z M 22.859375 -7.78125 "/></g></g></g><g fill="#01023f" fill-opacity="1"><g transform="translate(206.402291, 204.065511)"><g><path d="M 4.96875 -2.796875 C 2.351562 -5.117188 1.046875 -8.09375 1.046875 -11.71875 C 1.046875 -15.351562 2.40625 -18.335938 5.125 -20.671875 C 7.84375 -23.015625 11.203125 -24.1875 15.203125 -24.1875 C 19.140625 -24.1875 22.457031 -23.007812 25.15625 -20.65625 C 27.863281 -18.300781 29.21875 -15.320312 29.21875 -11.71875 C 29.21875 -8.113281 27.894531 -5.144531 25.25 -2.8125 C 22.613281 -0.476562 19.265625 0.6875 15.203125 0.6875 C 10.992188 0.6875 7.582031 -0.472656 4.96875 -2.796875 Z M 11.234375 -15.703125 C 10.179688 -14.671875 9.65625 -13.34375 9.65625 -11.71875 C 9.65625 -10.101562 10.160156 -8.785156 11.171875 -7.765625 C 12.179688 -6.742188 13.507812 -6.234375 15.15625 -6.234375 C 16.75 -6.234375 18.054688 -6.75 19.078125 -7.78125 C 20.097656 -8.820312 20.609375 -10.132812 20.609375 -11.71875 C 20.609375 -13.34375 20.082031 -14.671875 19.03125 -15.703125 C 17.976562 -16.742188 16.6875 -17.265625 15.15625 -17.265625 C 13.601562 -17.265625 12.296875 -16.742188 11.234375 -15.703125 Z M 11.234375 -15.703125 "/></g></g></g><g fill="#01023f" fill-opacity="1"><g transform="translate(235.617798, 204.065511)"><g><path d="M 10.390625 -23.5 L 10.390625 -12.3125 C 10.390625 -10 10.738281 -8.351562 11.4375 -7.375 C 12.144531 -6.394531 13.335938 -5.90625 15.015625 -5.90625 C 16.703125 -5.90625 17.894531 -6.394531 18.59375 -7.375 C 19.289062 -8.351562 19.640625 -10 19.640625 -12.3125 L 19.640625 -23.5 L 27.75 -23.5 L 27.75 -10.34375 C 27.75 -6.4375 26.734375 -3.617188 24.703125 -1.890625 C 22.671875 -0.171875 19.441406 0.6875 15.015625 0.6875 C 10.585938 0.6875 7.359375 -0.171875 5.328125 -1.890625 C 3.304688 -3.617188 2.296875 -6.4375 2.296875 -10.34375 L 2.296875 -23.5 Z M 10.390625 -23.5 "/></g></g></g><g fill="#01023f" fill-opacity="1"><g transform="translate(264.604356, 204.065511)"><g><path d="M 2.75 0 L 2.75 -23.5 L 10.859375 -23.5 L 10.859375 -21.015625 L 10.953125 -21.015625 C 13.054688 -23.128906 15.296875 -24.1875 17.671875 -24.1875 C 18.835938 -24.1875 19.992188 -24.03125 21.140625 -23.71875 C 22.285156 -23.414062 23.382812 -22.941406 24.4375 -22.296875 C 25.488281 -21.660156 26.34375 -20.753906 27 -19.578125 C 27.65625 -18.398438 27.984375 -17.035156 27.984375 -15.484375 L 27.984375 0 L 19.875 0 L 19.875 -13.28125 C 19.875 -14.5 19.484375 -15.566406 18.703125 -16.484375 C 17.929688 -17.398438 16.914062 -17.859375 15.65625 -17.859375 C 14.4375 -17.859375 13.332031 -17.382812 12.34375 -16.4375 C 11.351562 -15.488281 10.859375 -14.4375 10.859375 -13.28125 L 10.859375 0 Z M 2.75 0 "/></g></g></g><g fill="#01023f" fill-opacity="1"><g transform="translate(293.819863, 204.065511)"><g><path d="M 4.125 -23.5 L 4.125 -32.234375 L 12.234375 -32.234375 L 12.234375 -23.5 L 17.171875 -23.5 L 17.171875 -17.3125 L 12.234375 -17.3125 L 12.234375 -9.84375 C 12.234375 -7.675781 12.84375 -6.59375 14.0625 -6.59375 C 14.363281 -6.59375 14.679688 -6.65625 15.015625 -6.78125 C 15.359375 -6.90625 15.617188 -7.023438 15.796875 -7.140625 L 16.078125 -7.328125 L 18.09375 -0.78125 C 16.351562 0.195312 14.367188 0.6875 12.140625 0.6875 C 10.609375 0.6875 9.289062 0.421875 8.1875 -0.109375 C 7.09375 -0.648438 6.265625 -1.367188 5.703125 -2.265625 C 5.140625 -3.171875 4.734375 -4.117188 4.484375 -5.109375 C 4.242188 -6.097656 4.125 -7.160156 4.125 -8.296875 L 4.125 -17.3125 L 0.734375 -17.3125 L 0.734375 -23.5 Z M 4.125 -23.5 "/></g></g></g></svg>